<svg width="478" height="78" viewBox="0 0 478 78" fill="none" xmlns="http://www.w3.org/2000/svg">
<path d="M51.2888 23.5697C45.6803 23.5697 42.5439 19.8993 42.5439 14.5736C42.5439 9.24796 45.6803 5.57756 51.2888 5.57756C55.6228 5.57756 58.4728 7.77261 59.5401 11.2031L57.1845 11.7788C56.4166 9.21194 54.4512 7.61667 51.2888 7.61667C47.0988 7.61667 45.016 10.4354 44.9901 14.5736C44.9642 18.7118 47.0988 21.5306 51.2888 21.5306C54.4512 21.5306 56.4166 19.9353 57.1845 17.3684L59.5401 17.9442C58.4728 21.3746 55.6228 23.5697 51.2888 23.5697ZM70.0987 23.5697C64.4894 23.5697 61.353 19.8993 61.353 14.5736C61.353 9.24796 64.4894 5.57756 70.0987 5.57756C75.708 5.57756 78.8444 9.24796 78.8444 14.5736C78.8444 19.8993 75.708 23.5697 70.0987 23.5697ZM70.0987 21.5306C74.2894 21.5545 76.3845 18.7118 76.3845 14.5736C76.3845 10.4354 74.2894 7.64068 70.0987 7.61667C65.9079 7.59265 63.8388 10.4354 63.8129 14.5736C63.787 18.7118 65.9079 21.5066 70.0987 21.5306ZM89.1626 23.5697C83.5533 23.5697 80.4169 19.8993 80.4169 14.5736C80.4169 9.24796 83.5533 5.57756 89.1626 5.57756C94.7712 5.57756 97.9076 9.24796 97.9076 14.5736C97.9076 19.8993 94.7712 23.5697 89.1626 23.5697ZM89.1626 21.5306C93.3527 21.5545 95.4484 18.7118 95.4484 14.5736C95.4484 10.4354 93.3527 7.64068 89.1626 7.61667C84.9718 7.59265 82.9027 10.4354 82.8768 14.5736C82.8502 18.7118 84.9718 21.5066 89.1626 21.5306ZM102.838 23.2098H100.521V5.93741H107.927C108.291 5.93741 108.825 5.96136 109.306 6.03333C112.339 6.46515 113.939 8.63618 113.939 11.383C113.939 13.662 112.833 15.5452 110.712 16.3608L114.33 23.2098H111.675L108.317 16.8286H102.838V23.2098ZM102.838 7.96451V14.8015H107.849C108.174 14.8015 108.63 14.7775 109.02 14.6936C110.816 14.3217 111.571 12.8224 111.571 11.383C111.571 9.94365 110.816 8.44428 109.02 8.07243C108.63 7.98852 108.174 7.96451 107.849 7.96451H102.838ZM122.974 23.2098H117.196V5.93741H122.974C123.339 5.93741 124.458 5.93741 125.343 6.04533C129.677 6.57314 131.928 10.1716 131.928 14.5736C131.928 18.9877 129.677 22.5741 125.343 23.1019C124.471 23.2098 123.326 23.2098 122.974 23.2098ZM119.578 7.97651V21.1707H122.974C123.625 21.1707 124.536 21.1467 125.148 21.0388C128.219 20.523 129.468 17.7762 129.468 14.5736C129.468 11.3111 128.18 8.61224 125.148 8.10845C124.536 8.00053 123.599 7.97651 122.974 7.97651H119.578ZM137.49 23.2098H135.173V5.93741H137.49V23.2098ZM143.737 23.2098H141.394V5.93741H143.737L153.511 19.4315V5.93741H155.853V23.2098H153.511L143.737 9.70372V23.2098ZM160.598 23.2098H158.191L164.464 5.93741H167.691L173.964 23.2098H171.557L170.073 19.1676H162.069L160.598 23.2098ZM162.798 17.1645H169.344L166.052 8.18042L162.798 17.1645ZM183.49 23.5697C177.88 23.5697 174.744 19.8993 174.744 14.5736C174.744 9.24796 177.88 5.57756 183.49 5.57756C187.824 5.57756 190.674 7.77261 191.741 11.2031L189.385 11.7788C188.617 9.21194 186.652 7.61667 183.49 7.61667C179.299 7.61667 177.217 10.4354 177.191 14.5736C177.165 18.7118 179.299 21.5306 183.49 21.5306C186.652 21.5306 188.617 19.9353 189.385 17.3684L191.741 17.9442C190.674 21.3746 187.824 23.5697 183.49 23.5697ZM197.172 23.2098H194.855V5.93741H197.172V23.2098ZM208.039 3.95827L209.744 0H211.631L209.926 3.95827H208.039ZM208.781 23.5697C203.172 23.5697 200.035 19.8993 200.035 14.5736C200.035 9.24796 203.172 5.57756 208.781 5.57756C214.39 5.57756 217.527 9.24796 217.527 14.5736C217.527 19.8993 214.39 23.5697 208.781 23.5697ZM208.781 21.5306C212.972 21.5545 215.067 18.7118 215.067 14.5736C215.067 10.4354 212.972 7.64068 208.781 7.61667C204.59 7.59265 202.521 10.4354 202.495 14.5736C202.469 18.7118 204.59 21.5066 208.781 21.5306ZM222.483 23.2098H220.141V5.93741H222.483L232.257 19.4315V5.93741H234.599V23.2098H232.257L222.483 9.70372V23.2098ZM249.227 23.2098H243.449V5.93741H249.227C249.592 5.93741 250.711 5.93741 251.596 6.04533C255.93 6.57314 258.181 10.1716 258.181 14.5736C258.181 18.9877 255.93 22.5741 251.596 23.1019C250.724 23.2098 249.579 23.2098 249.227 23.2098ZM245.831 7.97651V21.1707H249.227C249.878 21.1707 250.789 21.1467 251.401 21.0388C254.472 20.523 255.722 17.7762 255.722 14.5736C255.722 11.3111 254.433 8.61224 251.401 8.10845C250.789 8.00053 249.852 7.97651 249.227 7.97651H245.831ZM273.009 23.2098H261.165V5.93741H273.009V7.96451H263.482V13.3741H271.447V15.4013H263.482V21.1827H273.009V23.2098ZM283.664 23.2098H281.348V5.93741H288.753C289.117 5.93741 289.651 5.96136 290.132 6.03333C293.165 6.46515 294.766 8.63618 294.766 11.383C294.766 13.662 293.659 15.5452 291.538 16.3608L295.156 23.2098H292.501L289.143 16.8286H283.664V23.2098ZM283.664 7.96451V14.8015H288.675C289 14.8015 289.456 14.7775 289.846 14.6936C291.642 14.3217 292.397 12.8224 292.397 11.383C292.397 9.94365 291.642 8.44428 289.846 8.07243C289.456 7.98852 289 7.96451 288.675 7.96451H283.664ZM309.865 23.2098H298.022V5.93741H309.865V7.96451H300.339V13.3741H308.304V15.4013H300.339V21.1827H309.865V23.2098ZM324.264 23.2098H313.254V5.93741H315.57V21.1827H324.264V23.2098ZM327.571 23.2098H325.164L331.437 5.93741H334.665L340.937 23.2098H338.529L337.046 19.1676H329.042L327.571 23.2098ZM329.771 17.1645H336.317L333.024 8.18042L329.771 17.1645ZM350.462 23.5697C344.854 23.5697 341.718 19.8993 341.718 14.5736C341.718 9.24796 344.854 5.57756 350.462 5.57756C354.796 5.57756 357.646 7.77261 358.714 11.2031L356.358 11.7788C355.59 9.21194 353.626 7.61667 350.462 7.61667C346.272 7.61667 344.19 10.4354 344.164 14.5736C344.138 18.7118 346.272 21.5306 350.462 21.5306C353.626 21.5306 355.59 19.9353 356.358 17.3684L358.714 17.9442C357.646 21.3746 354.796 23.5697 350.462 23.5697ZM364.145 23.2098H361.829V5.93741H364.145V23.2098ZM375.754 23.5697C370.145 23.5697 367.008 19.8993 367.008 14.5736C367.008 9.24796 370.145 5.57756 375.754 5.57756C381.363 5.57756 384.5 9.24796 384.5 14.5736C384.5 19.8993 381.363 23.5697 375.754 23.5697ZM375.754 21.5306C379.945 21.5545 382.04 18.7118 382.04 14.5736C382.04 10.4354 379.945 7.64068 375.754 7.61667C371.564 7.59265 369.494 10.4354 369.468 14.5736C369.442 18.7118 371.564 21.5066 375.754 21.5306ZM389.456 23.2098H387.114V5.93741H389.456L399.23 19.4315V5.93741H401.572V23.2098H399.23L389.456 9.70372V23.2098ZM417.054 23.2098H405.212V5.93741H417.054V7.96451H407.528V13.3741H415.492V15.4013H407.528V21.1827H417.054V23.2098ZM426.324 23.5697C422.342 23.5697 419.388 21.6026 418.763 18.4239L421.158 18.0761C421.757 20.2591 423.826 21.5426 426.442 21.5426C428.954 21.5426 430.945 20.3911 430.945 18.5079C430.945 16.9966 429.67 16.3488 428.329 15.977L423.552 14.6696C421.47 14.1058 419.492 12.9903 419.492 10.4354C419.492 7.37674 422.316 5.57756 426.051 5.58957C429.826 5.61352 432.532 7.49674 433.222 10.6393L430.762 11.0351C430.372 8.93607 428.406 7.64068 426.025 7.61667C423.722 7.59265 421.939 8.74417 421.939 10.3394C421.939 11.9348 423.67 12.4865 425.062 12.8464L428.628 13.7939C430.255 14.2137 433.339 15.0654 433.339 18.3879C433.339 21.7345 430.216 23.5697 426.324 23.5697ZM4.89392 57.7023H0V33.8229H15.8332V38.3335H4.89392V43.5073H13.6741V48.0179H4.89392V57.7023ZM24.3356 57.7023H19.4418V33.8229H24.3356V57.7023ZM39.5168 58.1998C33.7593 58.1998 29.4412 55.248 28.6495 50.4058L33.7593 49.7093C34.479 52.4621 36.9619 53.9877 39.8407 53.9877C42.2517 53.9877 44.7706 52.9264 44.7706 50.9365C44.7706 49.9747 44.2668 49.1124 42.2517 48.5485L35.5225 46.7244C33.5074 46.1938 29.6571 45.033 29.6571 40.4892C29.6571 35.6802 34.0112 33.3254 39.3369 33.3586C44.6986 33.4249 48.441 35.8792 49.7005 40.3566L44.4107 41.1857C43.835 38.8641 41.6039 37.637 39.2649 37.5706C36.9619 37.5043 34.8028 38.5656 34.8028 40.2571C34.8028 41.8159 36.6021 42.4129 38.2574 42.8109L42.7555 43.9385C45.4183 44.6018 49.9164 45.7958 49.9164 50.6048C49.9164 55.7455 44.8066 58.1998 39.5168 58.1998ZM64.9903 58.1998C57.2177 58.1998 52.4317 53.1918 52.4317 45.7626C52.4317 38.3335 57.2177 33.3254 64.9903 33.3254C70.9278 33.3254 75.102 36.244 76.7573 40.8872L71.8274 42.1475C70.8558 39.2621 68.5888 37.5706 64.9903 37.5706C60.0604 37.5706 57.5775 40.7877 57.5775 45.7626C57.5775 50.7375 60.0604 53.9546 64.9903 53.9546C68.5888 53.9546 70.8558 52.2631 71.8274 49.3777L76.7573 50.638C75.102 55.2812 70.9278 58.1998 64.9903 58.1998ZM83.2554 57.7023H78.2175L86.1341 33.8229H93.439L101.356 57.7023H96.3178L94.6445 52.7274H84.8927L83.2554 57.7023ZM86.2781 48.5154H93.2411L89.7326 38.0516L86.2781 48.5154ZM120.989 57.7023H104.94V33.8229H109.834V53.4902H120.989V57.7023ZM140.961 57.7023H124.048V33.8229H140.961V38.035H128.942V43.1425H138.802V47.3546H128.942V53.4902H140.961V57.7023ZM155.061 58.1998C149.304 58.1998 144.985 55.248 144.194 50.4058L149.304 49.7093C150.023 52.4621 152.506 53.9877 155.385 53.9877C157.796 53.9877 160.315 52.9264 160.315 50.9365C160.315 49.9747 159.811 49.1124 157.796 48.5485L151.067 46.7244C149.052 46.1938 145.201 45.033 145.201 40.4892C145.201 35.6802 149.556 33.3254 154.881 33.3586C160.243 33.4249 163.985 35.8792 165.245 40.3566L159.955 41.1857C159.379 38.8641 157.148 37.637 154.809 37.5706C152.506 37.5043 150.347 38.5656 150.347 40.2571C150.347 41.8159 152.146 42.4129 153.802 42.8109L158.3 43.9385C160.963 44.6018 165.461 45.7958 165.461 50.6048C165.461 55.7455 160.351 58.1998 155.061 58.1998ZM187.739 58.1998C179.966 58.1998 175.18 53.1918 175.18 45.7626C175.18 38.3335 179.966 33.3254 187.739 33.3254C193.676 33.3254 197.85 36.244 199.506 40.8872L194.576 42.1475C193.604 39.2621 191.337 37.5706 187.739 37.5706C182.809 37.5706 180.326 40.7877 180.326 45.7626C180.326 50.7375 182.809 53.9546 187.739 53.9546C191.337 53.9546 193.604 52.2631 194.576 49.3777L199.506 50.638C197.85 55.2812 193.676 58.1998 187.739 58.1998ZM214.587 58.1998C206.814 58.1998 202.028 53.1918 202.028 45.7626C202.028 38.3335 206.814 33.3254 214.587 33.3254C222.36 33.3254 227.145 38.3335 227.145 45.7626C227.145 53.1918 222.36 58.1998 214.587 58.1998ZM214.587 53.9546C219.517 54.0209 221.964 50.7375 221.964 45.7626C221.964 40.7877 219.517 37.637 214.587 37.5706C209.657 37.5043 207.21 40.7877 207.21 45.7626C207.21 50.7375 209.657 53.8882 214.587 53.9546ZM235.703 57.7023H230.737V33.8229H235.703L246.966 49.7425V33.8229H251.932V57.7023H246.966L235.703 41.7827V57.7023ZM268.726 57.7023H264.156V33.8229H268.546L277.111 49.6762L285.675 33.8229H290.065V57.7023H285.495V43.441L277.974 57.7023H276.247L268.726 43.441V57.7023ZM305.659 58.1998C299.398 58.1998 295.115 54.4852 295.115 48.7475V33.8561L300.081 33.8229V48.7144C300.081 51.8651 302.564 53.9546 305.659 53.9546C308.825 53.9546 311.236 51.7988 311.236 48.7144V33.8229H316.202V48.7475C316.202 54.4852 311.92 58.1998 305.659 58.1998ZM326.192 57.7023H321.226V33.8229H326.192L337.455 49.7425V33.8229H342.421V57.7023H337.455L326.192 41.7827V57.7023ZM352.695 57.7023H347.801V33.8229H352.695V57.7023ZM369.208 58.1998C361.435 58.1998 356.649 53.1918 356.649 45.7626C356.649 38.3335 361.435 33.3254 369.208 33.3254C375.145 33.3254 379.319 36.244 380.975 40.8872L376.045 42.1475C375.073 39.2621 372.806 37.5706 369.208 37.5706C364.278 37.5706 361.795 40.7877 361.795 45.7626C361.795 50.7375 364.278 53.9546 369.208 53.9546C372.806 53.9546 375.073 52.2631 376.045 49.3777L380.975 50.638C379.319 55.2812 375.145 58.1998 369.208 58.1998ZM390.19 57.7023H385.296V33.8229H390.19V57.7023ZM400.478 57.7023H395.584V33.8229H406.524C407.027 33.8229 407.999 33.8561 408.683 33.9556C413.325 34.6189 415.376 37.7033 415.376 41.7164C415.376 45.7294 413.289 48.8139 408.683 49.4772C407.999 49.5767 406.991 49.6098 406.524 49.6098H400.478V57.7023ZM400.478 38.035V45.3978H406.308C406.811 45.3978 407.459 45.3646 407.963 45.232C409.942 44.7345 410.446 43.0098 410.446 41.7164C410.446 40.4229 409.942 38.6983 407.963 38.2008C407.459 38.0681 406.811 38.035 406.308 38.035H400.478ZM424.242 57.7023H419.348V33.8229H424.242V57.7023ZM440.756 58.1998C432.983 58.1998 428.197 53.1918 428.197 45.7626C428.197 38.3335 432.983 33.3254 440.756 33.3254C448.529 33.3254 453.315 38.3335 453.315 45.7626C453.315 53.1918 448.529 58.1998 440.756 58.1998ZM440.756 53.9546C445.686 54.0209 448.133 50.7375 448.133 45.7626C448.133 40.7877 445.686 37.637 440.756 37.5706C435.826 37.5043 433.379 40.7877 433.379 45.7626C433.379 50.7375 435.826 53.8882 440.756 53.9546ZM466.694 58.1998C460.937 58.1998 456.618 55.248 455.827 50.4058L460.937 49.7093C461.656 52.4621 464.139 53.9877 467.018 53.9877C469.429 53.9877 471.948 52.9264 471.948 50.9365C471.948 49.9747 471.444 49.1124 469.429 48.5485L462.7 46.7244C460.685 46.1938 456.834 45.033 456.834 40.4892C456.834 35.6802 461.188 33.3254 466.514 33.3586C471.876 33.4249 475.618 35.8792 476.878 40.3566L471.588 41.1857C471.012 38.8641 468.781 37.637 466.442 37.5706C464.139 37.5043 461.98 38.5656 461.98 40.2571C461.98 41.8159 463.779 42.4129 465.435 42.8109L469.933 43.9385C472.596 44.6018 477.094 45.7958 477.094 50.6048C477.094 55.7455 471.984 58.1998 466.694 58.1998Z" fill="#F4DFB9"/>
<path d="M32.3374 64.9988C32.3374 64.9988 29.3161 70.1952 21.9501 70.1952C14.584 70.1952 11.562 64.9988 11.562 64.9988H0.866699C0.866699 64.9988 7.03159 78.0051 21.9501 78.0051C36.8686 78.0051 43.0327 64.9988 43.0327 64.9988H32.3374Z" fill="#89B968"/>
</svg>
