<svg width="167" height="54" viewBox="0 0 167 54" fill="none" xmlns="http://www.w3.org/2000/svg">
<path d="M100.63 45.7241C99.17 47.2034 97.24 48.1112 95.08 48.1112C92.92 48.1112 90.93 47.2034 89.46 45.7241H83.11C85.36 50.3974 89.81 53.5801 95.08 53.5801C100.35 53.5801 104.71 50.3974 106.95 45.7241H100.63Z" fill="#F4DFB9"/>
<path d="M148.89 12.1258C147.43 10.6465 145.5 9.73874 143.34 9.73874C141.18 9.73874 139.19 10.6465 137.72 12.1258H131.37C133.62 7.45253 138.07 4.26978 143.34 4.26978C148.61 4.26978 152.97 7.45253 155.21 12.1258H148.89Z" fill="#F4DFB9"/>
<path d="M10.82 14.8491C14.31 14.8491 16.97 15.8802 18.81 17.9422C20.65 20.0043 21.57 23.1422 21.57 27.3784V43.0233H16.71V27.7034C16.71 26.0448 16.5 24.6215 16.07 23.4224C15.65 22.2233 14.99 21.3043 14.11 20.6767C13.23 20.0491 12.12 19.7241 10.76 19.7241C9.40001 19.7241 8.21003 20.0491 7.34003 20.6991C6.47003 21.3491 5.85001 22.2793 5.45001 23.4672C5.06001 24.6664 4.86002 26.0784 4.86002 27.6922V43.012H0V27.3672C0 23.0638 0.940018 19.9146 2.80002 17.8862C4.67002 15.8577 7.34001 14.8491 10.79 14.8491" fill="#F4DFB9"/>
<path d="M58.01 43.012C54.52 43.012 51.86 41.981 50.02 39.9189C48.18 37.8569 47.26 34.7189 47.26 30.4827V14.8379H52.12V30.1577C52.12 31.8163 52.33 33.2396 52.76 34.4388C53.18 35.6379 53.84 36.5569 54.72 37.1844C55.6 37.812 56.71 38.137 58.07 38.137C59.43 38.137 60.62 37.812 61.49 37.162C62.36 36.512 62.98 35.5819 63.38 34.3939C63.77 33.1948 63.97 31.7827 63.97 30.1689V14.8491H68.83V30.4939C68.83 34.7974 67.89 37.9465 66.03 39.975C64.16 42.0034 61.49 43.012 58.04 43.012" fill="#F4DFB9"/>
<path d="M93.46 21.338C92.55 19.1975 91.19 17.5164 89.41 16.2949C87.61 15.0733 85.42 14.4681 82.86 14.4681C80.3 14.4681 78.1 15.0621 76.29 16.2949C74.51 17.5164 73.13 19.1862 72.19 21.3156C71.26 23.4673 70.77 25.9552 70.77 28.8018C70.77 31.6483 71.24 34.0914 72.17 36.2656C73.11 38.4173 74.46 40.0535 76.25 41.2526C78.05 42.4293 80.24 43.0233 82.82 43.0233C85.4 43.0233 87.61 42.4293 89.39 41.2526C91.17 40.0535 92.51 38.4061 93.44 36.2656C94.38 34.0914 94.82 31.6483 94.82 28.8578C94.82 26.0673 94.37 23.4897 93.46 21.3492M89.27 33.4638C88.76 34.9095 87.98 36.0302 86.93 36.8819C85.86 37.7337 84.5 38.1595 82.81 38.1595C81.12 38.1595 79.76 37.7337 78.69 36.8819C77.62 36.0302 76.84 34.9095 76.35 33.4862C75.88 32.0854 75.64 30.5164 75.64 28.7906C75.64 27.0647 75.89 25.5518 76.35 24.1509C76.84 22.7276 77.62 21.6069 78.69 20.7328C79.76 19.8587 81.14 19.4328 82.81 19.4328C84.48 19.4328 85.86 19.8587 86.93 20.7328C87.98 21.6069 88.76 22.7276 89.27 24.1509C89.76 25.5518 90 27.0983 90 28.7906C90 30.4828 89.76 32.0293 89.27 33.4526" fill="#F4DFB9"/>
<path d="M107.21 43.012C103.72 43.012 101.06 41.981 99.22 39.9189C97.38 37.8569 96.46 34.7189 96.46 30.4827V14.8379H101.32V30.1577C101.32 31.8163 101.53 33.2396 101.96 34.4388C102.38 35.6379 103.04 36.5569 103.92 37.1844C104.8 37.812 105.91 38.137 107.27 38.137C108.63 38.137 109.82 37.812 110.69 37.162C111.56 36.512 112.18 35.5819 112.58 34.3939C112.97 33.1948 113.17 31.7827 113.17 30.1689V14.8491H118.03V30.4939C118.03 34.7974 117.09 37.9465 115.23 39.975C113.36 42.0034 110.69 43.012 107.24 43.012" fill="#F4DFB9"/>
<path d="M34.9701 43.0121C32.3601 43.0121 30.1801 42.4069 28.4201 41.219C26.6601 40.0199 25.3301 38.3612 24.4301 36.2207C23.5301 34.0914 23.0901 31.6371 23.0901 28.8466C23.0901 26.0561 23.5501 23.5457 24.4801 21.394C25.4101 19.2423 26.7601 17.55 28.5301 16.3173C30.3001 15.0845 32.4501 14.4681 34.9601 14.4681C36.8801 14.4681 38.5401 14.8604 39.9601 15.6561C41.3701 16.4518 42.5501 17.5164 43.4701 18.85C44.4001 20.1837 45.0801 21.6742 45.5201 23.3104C45.7401 24.1285 45.9001 25.5293 45.9901 26.9302C46.1201 28.925 44.7201 30.6285 42.9301 30.6285H27.9801C28.0801 32.0406 28.4001 33.3181 28.9501 34.4837C29.5001 35.6492 30.2801 36.5681 31.2801 37.2518C32.2901 37.9354 33.5301 38.2828 35.0101 38.2828C35.8301 38.2828 36.6201 38.1707 37.3901 37.9354C38.1601 37.7112 38.8501 37.3414 39.4601 36.8259C39.7801 36.5569 40.0601 36.2431 40.2801 35.8845C40.6901 35.2233 41.3701 34.8423 42.0801 34.8423C44.0001 34.8423 45.0601 37.375 43.8201 39.0112C43.7001 39.1681 43.5801 39.3138 43.4601 39.4595C42.4101 40.6811 41.1301 41.5664 39.6401 42.1268C38.1501 42.6871 36.5801 42.9673 34.9501 42.9673M28.0901 26.3138H41.2901C41.2601 24.9466 40.9701 23.7138 40.4401 22.638C39.9101 21.5621 39.1701 20.7216 38.2201 20.1052C37.2801 19.4888 36.1501 19.175 34.8201 19.175C33.3701 19.175 32.1701 19.5112 31.2201 20.1837C30.2601 20.8561 29.5201 21.7302 29.0001 22.7949C28.4801 23.8707 28.1701 25.0362 28.0801 26.3138" fill="#F4DFB9"/>
<path d="M155.63 14.8491C159.12 14.8491 161.78 15.8802 163.62 17.9422C165.46 20.0043 166.38 23.1422 166.38 27.3784V43.0233H161.52V27.7034C161.52 26.0448 161.31 24.6215 160.88 23.4224C160.46 22.2233 159.8 21.3043 158.92 20.6767C158.04 20.0491 156.93 19.7241 155.57 19.7241C154.21 19.7241 153.02 20.0491 152.15 20.6991C151.28 21.3491 150.66 22.2793 150.26 23.4672C149.87 24.6664 149.67 26.0784 149.67 27.6922V43.012H144.81V27.3672C144.81 23.0638 145.75 19.9146 147.61 17.8862C149.48 15.8577 152.15 14.8491 155.6 14.8491" fill="#F4DFB9"/>
<path d="M130.55 43.0121C133.16 43.0121 135.34 42.4069 137.1 41.219C138.86 40.0199 140.19 38.3612 141.09 36.2207C141.99 34.0914 142.43 31.6371 142.43 28.8466C142.43 26.0561 141.97 23.5457 141.04 21.394C140.11 19.2423 138.76 17.55 136.99 16.3173C135.22 15.0845 133.07 14.4681 130.56 14.4681C128.64 14.4681 126.98 14.8604 125.56 15.6561C124.15 16.4518 122.97 17.5164 122.05 18.85C121.12 20.1837 120.44 21.6742 120 23.3104C119.78 24.1285 119.62 25.5293 119.53 26.9302C119.4 28.925 120.8 30.6285 122.59 30.6285H137.54C137.44 32.0406 137.12 33.3181 136.57 34.4837C136.02 35.6492 135.24 36.5681 134.24 37.2518C133.23 37.9354 131.99 38.2828 130.51 38.2828C129.69 38.2828 128.9 38.1707 128.13 37.9354C127.36 37.7112 126.67 37.3414 126.06 36.8259C125.74 36.5569 125.46 36.2431 125.24 35.8845C124.83 35.2233 124.15 34.8423 123.44 34.8423C121.52 34.8423 120.46 37.375 121.7 39.0112C121.82 39.1681 121.94 39.3138 122.06 39.4595C123.11 40.6811 124.39 41.5664 125.88 42.1268C127.37 42.6871 128.94 42.9673 130.57 42.9673M137.44 26.3138H124.24C124.27 24.9466 124.56 23.7138 125.09 22.638C125.62 21.5621 126.36 20.7216 127.31 20.1052C128.25 19.4888 129.38 19.175 130.71 19.175C132.16 19.175 133.36 19.5112 134.31 20.1837C135.27 20.8561 136.01 21.7302 136.53 22.7949C137.05 23.8707 137.36 25.0362 137.45 26.3138" fill="#F4DFB9"/>
<path d="M2.37 9.38014V0.10083H5.63998C5.79998 0.10083 6.03997 0.112036 6.24997 0.156864C7.58997 0.392209 8.29999 1.55773 8.29999 3.02583C8.29999 4.49393 7.58997 5.67066 6.24997 5.8948C6.03997 5.92842 5.79998 5.95083 5.63998 5.95083H3.38998V9.38014H2.37ZM3.38998 4.86376H5.59998C5.73998 4.86376 5.95 4.85256 6.12 4.80773C6.91 4.606 7.24997 3.79911 7.24997 3.02583C7.24997 2.25256 6.92 1.44566 6.12 1.24393C5.95 1.19911 5.74998 1.1879 5.59998 1.1879H3.38998V4.86376Z" fill="#F4DFB9"/>
<path d="M9.43994 9.38017V2.42069H10.3499V3.51896C10.4899 3.25 10.6699 3.01465 10.8799 2.84655C11.3599 2.40948 12.09 2.2862 12.64 2.42069V3.49655C12.21 3.37327 11.6499 3.4069 11.2199 3.76552C10.6199 4.24741 10.4699 5.06552 10.4699 5.89483V9.39138H9.43994V9.38017Z" fill="#F4DFB9"/>
<path d="M13.28 5.89488C13.28 3.70954 14.45 2.23022 16.27 2.23022C18.09 2.23022 19.27 3.74316 19.27 5.89488C19.27 8.0466 18.12 9.57074 16.27 9.57074C14.42 9.57074 13.28 8.0466 13.28 5.89488ZM18.18 5.89488C18.18 4.32591 17.54 3.31729 16.27 3.31729C15 3.31729 14.37 4.37074 14.37 5.89488C14.37 7.41902 15.02 8.48367 16.27 8.48367C17.52 8.48367 18.18 7.43023 18.18 5.89488Z" fill="#F4DFB9"/>
<path d="M21.98 9.38014L19.73 2.42065H20.77L22.51 7.92324L24.25 2.42065H25.29L23.04 9.38014H21.99H21.98Z" fill="#F4DFB9"/>
<path d="M26.4199 1.18793V0H27.4399V1.18793H26.4199ZM26.4199 9.38017V2.42069H27.4399V9.38017H26.4199Z" fill="#F4DFB9"/>
<path d="M29.1699 9.38012V2.42064H30.0899V3.31719C30.5499 2.62237 31.2599 2.24133 32.1599 2.24133C34.1599 2.24133 34.6299 4.21375 34.6299 5.53616V9.38012H33.5899V5.89478C33.5899 4.58358 33.2199 3.3284 31.9099 3.3284C30.8799 3.3284 30.1999 4.10168 30.1999 5.71547V9.38012H29.1599H29.1699Z" fill="#F4DFB9"/>
<path d="M35.72 5.90609C35.74 3.73195 36.82 2.23022 38.69 2.23022C40 2.23022 41.01 3.0035 41.34 4.25867L40.33 4.59488C40.07 3.78798 39.44 3.31729 38.69 3.31729C37.41 3.31729 36.83 4.39315 36.82 5.90609C36.83 7.46384 37.46 8.49488 38.69 8.49488C39.5 8.49488 40.03 8.06902 40.31 7.27333L41.35 7.57592C40.91 8.87592 39.98 9.58195 38.69 9.58195C36.8 9.58195 35.75 8.0466 35.73 5.90609H35.72Z" fill="#F4DFB9"/>
<path d="M42.46 1.18793V0H43.4799V1.18793H42.46ZM42.46 9.38017V2.42069H43.4799V9.38017H42.46Z" fill="#F4DFB9"/>
<path d="M44.86 7.49746C44.86 6.39919 45.44 5.76039 46.38 5.45781C47.16 5.22246 48.25 5.07678 49.17 4.93109C49.14 3.8216 48.72 3.29488 47.64 3.29488C46.89 3.29488 46.28 3.6647 46.06 4.51643L45.09 4.19143C45.38 2.96988 46.25 2.23022 47.66 2.23022C48.78 2.23022 49.63 2.6785 49.98 3.58626C50.15 4.02333 50.18 4.52764 50.18 5.07677V9.38022H49.27V8.29316C48.78 9.14488 48 9.57074 46.97 9.57074C45.58 9.57074 44.86 8.61815 44.86 7.49746ZM49.06 7.01557C49.15 6.67936 49.16 6.23108 49.16 5.91729C48.29 6.05177 47.45 6.15264 46.84 6.35436C46.33 6.53367 45.87 6.84746 45.87 7.49746C45.87 8.06901 46.23 8.61815 47.12 8.61815C48.22 8.61815 48.9 7.8785 49.05 7.01557H49.06Z" fill="#F4DFB9"/>
<path d="M53.63 5.89482C53.63 3.81034 54.68 2.23017 56.41 2.23017C57.19 2.23017 57.8 2.53275 58.24 3.05948V0.112061H59.27V9.39137H58.36V8.60689C57.91 9.22327 57.26 9.58189 56.42 9.58189C54.68 9.58189 53.64 7.99051 53.64 5.90603L53.63 5.89482ZM58.35 5.89482C58.35 4.35948 57.78 3.27241 56.56 3.27241C55.34 3.27241 54.71 4.41551 54.71 5.89482C54.71 7.37413 55.31 8.52844 56.53 8.52844C57.75 8.52844 58.35 7.43017 58.35 5.89482Z" fill="#F4DFB9"/>
<path d="M60.53 5.95091C60.53 3.66471 61.71 2.23022 63.52 2.23022C65.33 2.23022 66.48 3.75436 66.39 6.23109H61.63C61.71 7.67678 62.38 8.49488 63.52 8.49488C64.34 8.49488 64.96 8.05781 65.3 7.27333L66.28 7.65436C65.79 8.88712 64.76 9.59316 63.56 9.59316C61.73 9.59316 60.52 8.14746 60.52 5.96212L60.53 5.95091ZM61.65 5.30091H65.33C65.2 3.93367 64.61 3.26126 63.56 3.26126C62.45 3.26126 61.8 3.9785 61.65 5.30091Z" fill="#F4DFB9"/>
<path d="M67.78 9.38014V0.10083H68.8V9.38014H67.78Z" fill="#F4DFB9"/>
</svg>
