<svg width="175" height="85" viewBox="0 0 175 85" fill="none" xmlns="http://www.w3.org/2000/svg">
<path fill-rule="evenodd" clip-rule="evenodd" d="M51.72 21.7758C50.76 22.8069 49.79 23.2103 48.81 23.3112L34.72 21.081C34.15 20.9914 33.41 20.9465 32.66 20.9577C31.82 20.9577 30.97 20.9914 30.32 21.1034L17.67 23.1095C16.13 22.2802 14.67 21.6302 13.29 22.5043C13.15 22.5939 12.98 22.5491 12.89 22.4034C12.8 22.2577 12.81 22.0672 12.92 21.9439C14.69 20.0388 16.53 20.2965 18.31 20.5431C19.61 20.7224 20.85 20.9017 22.05 20.2405C20.74 19.7698 19.74 18.481 18.76 17.2258C17.49 15.6008 16.28 14.0543 14.53 14.2896C14.37 14.312 14.23 14.2 14.19 14.0319C14.15 13.8638 14.23 13.6845 14.38 13.6172C16.67 12.6086 18.28 13.6396 19.83 14.6258C20.97 15.3543 22.05 16.0379 23.39 15.9483C22.34 14.9508 21.85 13.337 21.37 11.7569C20.75 9.70601 20.16 7.76722 18.46 7.22929C18.31 7.18446 18.21 7.01636 18.24 6.83705C18.26 6.65774 18.4 6.53446 18.56 6.53446C21.02 6.5905 22.15 8.2267 23.25 9.80688C24.05 10.9612 24.82 12.0707 26.09 12.5526C25.46 11.1853 25.56 9.48188 25.66 7.81205C25.79 5.64912 25.91 3.60946 24.52 2.38791C24.4 2.27584 24.36 2.08532 24.44 1.92843C24.52 1.77153 24.69 1.7155 24.83 1.78274C27.08 2.88101 27.57 4.88705 28.05 6.82584C28.4 8.23791 28.73 9.59395 29.73 10.5802C29.62 9.04481 30.29 7.50946 30.95 6.01894C31.81 4.08015 32.62 2.24222 31.75 0.516357C31.67 0.35946 31.71 0.168944 31.84 0.0680816C31.97 -0.0327805 32.14 -0.0215728 32.25 0.101703C33.95 2.08532 33.72 4.14739 33.5 6.14222C33.34 7.59912 33.18 8.98877 33.77 10.3336C34.19 8.8655 35.34 7.74481 36.46 6.63532C37.91 5.21205 39.29 3.85601 39.08 1.89481C39.06 1.7155 39.16 1.5586 39.31 1.51377C39.46 1.46894 39.62 1.5586 39.68 1.7267C40.58 4.29308 39.66 6.09739 38.78 7.83446C38.13 9.11205 37.52 10.3224 37.6 11.8241C38.49 10.6474 39.93 10.0983 41.34 9.56032C43.17 8.8655 44.9 8.20429 45.38 6.29912C45.42 6.13101 45.57 6.01894 45.73 6.04136C45.89 6.06377 46 6.22067 46 6.39998C45.95 9.15687 44.49 10.4233 43.08 11.656C42.05 12.5526 41.06 13.4155 40.63 14.8388C41.85 14.1327 43.37 14.2448 44.86 14.3569C46.79 14.5026 48.61 14.637 49.7 13.0793C49.8 12.9448 49.97 12.9 50.11 12.9896C50.25 13.0793 50.3 13.2698 50.24 13.4267C49.26 15.9483 47.47 16.4974 45.74 17.0353C44.48 17.4276 43.27 17.7974 42.39 18.9181C43.76 18.7948 45.13 19.5457 46.46 20.2853C48.19 21.2491 49.83 22.1457 51.37 21.1707C51.51 21.081 51.68 21.1258 51.77 21.2715C51.86 21.4172 51.85 21.6077 51.74 21.731L51.72 21.7758Z" fill="#F4DFB9"/>
<mask id="mask0_60_4" style="mask-type:luminance" maskUnits="userSpaceOnUse" x="0" y="21" width="33" height="64">
<path d="M32.67 21.5405H0V84.0862H32.67V21.5405Z" fill="white"/>
</mask>
<g mask="url(#mask0_60_4)">
<path d="M64.36 28.231C63.98 27.581 63.37 27.1552 62.66 27.0431L34.7 22.325C33.57 22.1345 31.73 22.1233 30.6 22.3026L2.67003 26.7181C1.96003 26.8302 1.35003 27.2448 0.970034 27.8948C0.580034 28.5448 0.470032 29.3293 0.640032 30.1026L7.80003 62.0871L9.40003 69.2258C9.72003 70.6379 10.9 72.1733 12.09 72.7448L25.52 79.0655L27.13 79.8276L27.32 79.9172L27.51 80.0069L28.59 80.5112L30.59 81.4526C31.12 81.6991 31.79 81.8336 32.47 81.856C32.53 81.856 32.6 81.856 32.66 81.856C32.72 81.856 32.79 81.856 32.86 81.856C33.54 81.8336 34.21 81.6991 34.75 81.4414L37.22 80.2758L37.82 79.9957L38.01 79.906L38.2 79.8164L38.41 79.7155L53.17 72.7448C54.36 72.1845 55.55 70.6379 55.87 69.237L57.29 62.9724L64.68 30.4388C64.86 29.6543 64.74 28.8698 64.36 28.2198V28.231ZM16.8 72.375L16.61 72.2853L13.42 70.7052C13.42 70.7052 12.46 70.1896 12.12 69.8871C11.2 69.0577 11.05 68.475 10.9 67.8138C10.83 67.5 11.13 67.5896 11.13 67.5896C11.13 67.5896 15.12 69.5284 15.25 69.6405C15.48 69.7862 15.71 69.9431 15.84 70.0664C16.75 70.9181 16.89 71.5008 17.03 72.162C17.1 72.4758 16.8 72.375 16.8 72.375ZM24.17 76.2974L23.98 76.2077L20.79 74.6276C20.79 74.6276 19.83 74.1121 19.49 73.8095C18.57 72.9802 18.42 72.3974 18.27 71.7362C18.2 71.4224 18.5 71.5121 18.5 71.5121C18.5 71.5121 22.49 73.4508 22.62 73.5629C22.85 73.7086 23.07 73.8655 23.21 73.9888C24.12 74.8405 24.26 75.4233 24.4 76.0845C24.47 76.3983 24.17 76.2974 24.17 76.2974ZM38.09 52.0121L37.23 53.8724C36.71 55.1948 35.66 54.6793 35.43 54.5448L33.77 53.5138L32.66 52.7741L31.8 53.2784L29.67 54.5448C29.45 54.6793 28.39 55.1948 27.87 53.8724L27.01 52.0121C26.89 51.7543 26.6 51.6086 26.35 51.6758L22.83 52.6284C22.58 52.6957 22.33 52.6508 22.27 52.5276C22.21 52.4043 22.32 52.1689 22.53 51.9896L32.68 43.3379L42.58 51.9896C42.78 52.1577 42.9 52.4043 42.84 52.5276C42.78 52.6508 42.53 52.6957 42.28 52.6284L38.76 51.6758C38.51 51.6086 38.22 51.7655 38.1 52.0121H38.09ZM46.85 71.725C46.7 72.3862 46.55 72.9689 45.63 73.7983C45.29 74.1008 44.33 74.6164 44.33 74.6164L41.14 76.1965L40.95 76.2862C40.95 76.2862 40.65 76.3871 40.72 76.0733C40.86 75.4008 41 74.8293 41.91 73.9776C42.04 73.8543 42.27 73.6974 42.5 73.5517C42.63 73.4396 46.62 71.5008 46.62 71.5008C46.62 71.5008 46.92 71.4 46.85 71.725ZM54.22 67.8026C54.07 68.475 53.92 69.0465 53 69.8758C52.66 70.1784 51.7 70.6939 51.7 70.6939L48.51 72.2741L48.32 72.3638C48.32 72.3638 48.02 72.4646 48.09 72.1508C48.23 71.4784 48.37 70.9069 49.28 70.0552C49.41 69.9319 49.64 69.775 49.87 69.6293C50 69.5172 53.99 67.5784 53.99 67.5784C53.99 67.5784 54.29 67.4776 54.22 67.8026ZM63.37 30.0689L56.12 61.975L32.66 41.3655L9.21003 61.975L1.96003 29.7439C1.88003 29.3853 1.93003 29.0267 2.10003 28.7465C2.27003 28.4664 2.54004 28.2758 2.87004 28.2198L30.8 23.8043C31.81 23.6474 33.5 23.6474 34.51 23.8267L62.47 28.5448C62.8 28.6008 63.07 28.7914 63.24 29.0715C63.41 29.3629 63.46 29.7103 63.38 30.0689H63.37Z" fill="#F4DFB9"/>
<path d="M15.33 49.0422L16.37 49.4457L15.32 49.7931L14.96 50.9586L14.65 49.7931L13.61 49.3896L14.65 49.031L15.01 47.8655L15.33 49.0422Z" fill="#F4DFB9"/>
<path d="M15.36 44.369L16.39 44.7725L15.35 45.1311L14.99 46.2966L14.67 45.1199L13.64 44.7164L14.68 44.369L15.04 43.2035L15.36 44.369Z" fill="#F4DFB9"/>
<path d="M16.39 40.0431L17.42 40.4465L16.38 40.8051L16.02 41.9707L15.7 40.7939L14.66 40.3905L15.71 40.0319L16.07 38.8776L16.39 40.0431Z" fill="#F4DFB9"/>
<path d="M17.82 35.8854L18.85 36.2888L17.81 36.6474L17.45 37.8017L17.13 36.6362L16.09 36.2328L17.14 35.8742L17.5 34.7198L17.82 35.8854Z" fill="#F4DFB9"/>
<path d="M20.5 32.4897L21.53 32.8932L20.49 33.2518L20.13 34.4061L19.81 33.2406L18.78 32.8371L19.82 32.4785L20.18 31.313L20.5 32.4897Z" fill="#F4DFB9"/>
<path d="M23.61 29.8673L24.64 30.282L23.6 30.6294L23.24 31.7949L22.92 30.6182L21.89 30.2147L22.93 29.8673L23.29 28.7018L23.61 29.8673Z" fill="#F4DFB9"/>
<path d="M26.97 28.0405L28 28.444L26.96 28.8026L26.6 29.9681L26.28 28.8026L25.25 28.3879L26.29 28.0405L26.65 26.875L26.97 28.0405Z" fill="#F4DFB9"/>
<path d="M30.98 26.8974L32.02 27.3009L30.97 27.6595L30.61 28.8138L30.29 27.6483L29.26 27.2448L30.3 26.8862L30.66 25.7207L30.98 26.8974Z" fill="#F4DFB9"/>
<path fill-rule="evenodd" clip-rule="evenodd" d="M22.05 78.9759L21.86 78.8862L18.64 77.3845C18.64 77.3845 17.64 76.9586 17.21 76.8914C16.03 76.7121 15.56 76.9923 15.03 77.3285C14.77 77.4854 15.04 77.6647 15.04 77.6647C15.04 77.6647 19.04 79.5698 19.2 79.6035C19.45 79.6931 19.71 79.7604 19.88 79.7828C21.06 79.9397 21.52 79.6483 22.06 79.3009C22.31 79.1328 22.04 78.9647 22.04 78.9647L22.05 78.9759Z" fill="#F4DFB9"/>
<path fill-rule="evenodd" clip-rule="evenodd" d="M14.57 75.356L14.38 75.2663L11.16 73.7646C11.16 73.7646 10.16 73.3388 9.73003 73.2715C8.55003 73.0922 8.08003 73.3724 7.55003 73.7086C7.29003 73.8655 7.56003 74.0448 7.56003 74.0448C7.56003 74.0448 11.56 75.95 11.72 75.9836C11.97 76.0732 12.23 76.1405 12.4 76.1629C13.58 76.3198 14.04 76.0284 14.58 75.681C14.83 75.5129 14.56 75.3448 14.56 75.3448L14.57 75.356Z" fill="#F4DFB9"/>
<path fill-rule="evenodd" clip-rule="evenodd" d="M29.68 82.5957C29.15 82.9431 28.69 83.2233 27.52 83.0776C27.52 83.0776 27.51 83.0776 27.5 83.0776C27.45 83.0776 27.38 83.0552 27.31 83.0439C27.24 83.0215 27.17 83.0103 27.1 82.9879C27.01 82.9655 26.91 82.9319 26.82 82.8983C26.66 82.8646 22.66 80.9595 22.66 80.9595C22.66 80.9595 22.39 80.7802 22.65 80.6233C23.19 80.2871 23.66 80.0069 24.83 80.1862C25.26 80.2534 26.26 80.6793 26.26 80.6793L27.03 81.0379L27.22 81.1276L27.41 81.2172L29.47 82.181L29.66 82.2707C29.66 82.2707 29.93 82.4388 29.68 82.6069V82.5957Z" fill="#F4DFB9"/>
<path fill-rule="evenodd" clip-rule="evenodd" d="M8.99003 71.4224L9.12004 71.3552L9.09003 71.1983C8.80003 69.7974 7.43003 69.0353 7.38003 69.0017L3.18003 66.6931C2.48003 66.2784 1.97003 66.6147 1.75003 67.0405C1.51003 67.5 1.52003 68.206 1.96003 68.5198L6.48003 71.2319C6.62003 71.2767 7.56003 71.5345 8.31003 71.5345C8.58003 71.5345 8.82003 71.5009 9.00003 71.4112L8.99003 71.4224Z" fill="#F4DFB9"/>
<path fill-rule="evenodd" clip-rule="evenodd" d="M35.95 78.6844L34.82 79.1999C33.45 79.8275 31.91 79.8275 30.53 79.1999L29.4 78.6844L29.01 78.5051C28.88 76.443 28.84 74.2465 28.16 73.2715C28.16 73.2603 28.14 73.249 28.13 73.2378C27.95 72.9801 27.71 72.7447 27.44 72.5318C26.67 71.9042 25.59 71.3887 24.41 70.8844C24.41 70.8844 24.14 70.7387 24.06 70.6939C22.69 69.8646 21.5 68.7999 20.78 67.1861C20.5 66.5585 20.25 65.9085 20 65.2697C19.79 64.7094 19.57 64.1603 19.33 63.6223C19.05 62.9835 18.93 62.3447 18.9 61.6947C18.88 61.1456 18.92 60.5965 19 60.0361C19.12 59.1844 19.22 58.3215 19.29 57.4697C19.33 56.9206 19.29 56.3715 19.31 55.8111C19.33 55.4077 19.55 55.2508 19.87 55.4413C20.09 55.587 20.29 55.8111 20.44 56.0465C20.76 56.5844 20.79 57.2232 20.81 57.8508C20.82 58.1758 20.83 58.5008 20.85 58.837V60.6637C19.75 61.1792 21.29 63.7456 21.59 64.1827C21.84 64.6085 22.8 65.9085 23.04 66.1215C23.27 66.4016 23.43 66.5921 23.5 66.6706C23.55 66.7266 23.61 66.749 23.67 66.7378C23.72 66.7378 23.76 66.7154 23.8 66.6706C23.89 66.5809 23.89 66.424 23.8 66.3344C22.32 64.6309 21.54 63.3758 21.15 62.5465C21.04 62.3111 20.95 62.087 20.9 61.8853C20.74 61.1568 21.3 60.8318 21.91 61.2801C21.93 61.3025 21.96 61.3137 21.98 61.3361C22.12 61.4482 22.29 61.5715 22.46 61.7508C23.2 62.5465 24.04 63.2077 24.79 63.9921C25.33 64.5637 25.81 65.0568 26.52 65.4154C26.52 65.4154 27.57 65.8077 28.08 65.9646C29.01 66.2447 29.91 66.6034 30.75 67.1077C30.91 67.2534 31.28 67.6008 31.3 67.5896C31.58 67.8585 31.86 68.1611 32.13 68.5422C32.16 68.587 32.19 68.6318 32.22 68.6766C32.37 68.9008 32.53 69.1361 32.68 69.3939C32.91 69.7973 33.13 70.2456 33.35 70.7611C33.36 70.7947 33.38 70.8284 33.39 70.8732C33.95 72.2516 35.1 75.8266 35.95 78.718V78.6844Z" fill="#2B3E4C"/>
<path fill-rule="evenodd" clip-rule="evenodd" d="M24.8101 59.3188C24.8101 59.005 24.99 58.8593 25.23 59.0274C25.45 59.1843 25.6901 59.3973 25.7701 59.6438C25.9501 60.1817 26.1101 60.7421 26.1501 61.3024C26.2101 62.1317 26.2301 63.1292 26.3901 64.0369C26.4401 64.3283 26.5001 64.6197 26.5801 64.8886C26.5501 65.0119 25.4001 63.9809 24.9601 63.499C24.9201 63.4542 24.84 60.5628 24.8 59.3188H24.8101Z" fill="#2B3E4C"/>
<path fill-rule="evenodd" clip-rule="evenodd" d="M24.4099 59.7559C24.4899 60.8206 24.57 62.0197 24.62 63.1628C24.12 62.6585 23.5599 62.1542 23.1299 61.6947C23.0499 61.6163 23.0699 61.4033 23.0599 61.2913C23.0099 59.9576 22.98 58.6128 22.94 57.2792C22.93 56.8309 23.1199 56.6852 23.4799 56.887C23.8199 57.0775 24.0599 57.4137 24.1399 57.8171C24.2599 58.4559 24.3599 59.1059 24.4099 59.7671V59.7559Z" fill="#2B3E4C"/>
<path fill-rule="evenodd" clip-rule="evenodd" d="M21.07 56.3267C21.05 55.8 21.31 55.5982 21.71 55.8784C21.92 56.0241 22.1 56.2819 22.24 56.5284C22.55 57.0775 22.52 57.7275 22.55 58.3439C22.61 59.2965 22.69 60.3387 22.74 61.3474C22.27 60.9663 21.99 60.731 21.21 60.5853C21.21 60.5517 21.1 57.0439 21.07 56.3267Z" fill="#2B3E4C"/>
<path fill-rule="evenodd" clip-rule="evenodd" d="M46.45 61.6724C46.42 62.3224 46.3 62.9724 46.02 63.6C45.78 64.1379 45.56 64.6982 45.35 65.2474C45.1 65.8974 44.85 66.5362 44.57 67.1638C43.85 68.7775 42.66 69.831 41.29 70.6715C41.22 70.7163 40.94 70.862 40.94 70.862C39.76 71.3775 38.68 71.8931 37.91 72.5094C37.64 72.7336 37.4 72.9689 37.22 73.2155C37.22 73.2267 37.2 73.2379 37.19 73.2491C36.51 74.2241 36.47 76.4206 36.34 78.4827L35.95 78.662L34.82 79.1775C33.45 79.8051 31.91 79.8051 30.53 79.1775L29.4 78.662C30.26 75.7819 31.4 72.2069 31.96 70.8284C31.97 70.7948 31.99 70.75 32 70.7163C32.21 70.2008 32.44 69.7526 32.67 69.3491C32.82 69.0913 32.97 68.8448 33.13 68.6319C33.16 68.587 33.19 68.5422 33.22 68.4974C33.49 68.1275 33.77 67.8138 34.05 67.5448C34.07 67.5448 34.44 67.2086 34.6 67.0629C35.44 66.5698 36.33 66.2 37.27 65.9198C37.78 65.7629 38.83 65.3819 38.83 65.3707C39.53 65.012 40.02 64.5189 40.56 63.9474C41.31 63.1629 42.15 62.5017 42.89 61.706C43.06 61.5267 43.22 61.4034 43.37 61.2913C43.39 61.2689 43.42 61.2577 43.44 61.2353C44.06 60.787 44.61 61.112 44.45 61.8405C44.4 62.0534 44.31 62.2663 44.2 62.5017C43.81 63.331 43.03 64.5862 41.55 66.2896C41.47 66.3793 41.47 66.5362 41.55 66.6258C41.59 66.6707 41.63 66.6931 41.68 66.6931C41.74 66.6931 41.81 66.6707 41.85 66.6258C41.92 66.5474 42.09 66.3456 42.31 66.0767C42.55 65.8638 43.5 64.5525 43.76 64.1379C44.06 63.6896 45.6 61.1232 44.49 60.6189V58.7922C44.5 58.4672 44.52 58.1422 44.53 57.806C44.55 57.1784 44.57 56.5396 44.9 56.0017C45.04 55.7663 45.25 55.531 45.47 55.3965C45.79 55.1948 46.01 55.3629 46.03 55.7663C46.05 56.3155 46.01 56.8758 46.06 57.425C46.13 58.2879 46.23 59.1396 46.35 59.9913C46.43 60.5517 46.47 61.1008 46.45 61.65V61.6724Z" fill="#2B3E4C"/>
<path d="M33.5901 37.5775L34.1101 39.2474C34.1901 39.4379 34.3901 39.5387 34.5701 39.4491C34.7401 39.3594 34.8301 39.1353 34.7501 38.9336L34.2401 37.8353L36.7501 39.7405C36.9101 39.8525 37.1301 39.7853 37.2201 39.5948C37.3201 39.4042 37.2601 39.1689 37.0901 39.068L35.8401 38.3844L38.7301 39.5275C39.0301 39.6172 39.3401 39.4267 39.4201 39.0905C39.5001 38.7542 39.3301 38.4068 39.0301 38.3172L36.8801 37.8241L38.2401 37.9361C38.5501 37.9361 38.8001 37.656 38.8001 37.3086C38.8001 36.9611 38.5501 36.681 38.2401 36.681L34.9601 36.9387L37.2601 36.0198C37.5201 35.7284 37.5201 35.2577 37.2601 34.9775L33.1201 32.0974C33.0001 31.9629 32.8301 31.8956 32.6701 31.8956C32.6701 31.8956 32.6601 31.8956 32.6501 31.8956C32.6501 31.8956 32.6401 31.8956 32.6301 31.8956C32.4701 31.8956 32.3001 31.9629 32.1801 32.1086L28.0401 34.9887C27.7901 35.2689 27.7901 35.7396 28.0401 36.031L30.3401 36.9499L27.0801 36.6922C26.7701 36.6922 26.5201 36.9724 26.5201 37.3198C26.5201 37.6672 26.7701 37.9474 27.0801 37.9474L28.4401 37.8353L26.2901 38.3284C25.9901 38.418 25.8201 38.7655 25.9001 39.1017C25.9801 39.4379 26.2901 39.6284 26.5901 39.5387L29.4801 38.3956L28.2301 39.0793C28.0701 39.1913 28.0101 39.4267 28.1001 39.606C28.2001 39.7853 28.4101 39.8525 28.5701 39.7517L31.0801 37.8465L30.5701 38.9448C30.4901 39.1465 30.5701 39.3706 30.7501 39.4603C30.9201 39.5499 31.1301 39.4603 31.2101 39.2586L31.7301 37.5887H31.7901V66.7827C32.3401 66.7491 32.8801 66.8051 33.4301 66.7827V37.5775H33.5701H33.5901Z" fill="#F4DFB9"/>
<path d="M31.36 67.6905H31.82V44.1224L31.36 51.194V67.6905Z" fill="#2B3E4C"/>
<path d="M37.93 79.2112L37.83 79.256L37.74 79.3008L37.23 79.5474L34.76 80.7129C34.18 80.9931 33.43 81.1276 32.68 81.1276C31.93 81.1276 31.19 80.9931 30.6 80.7129L28.6 79.7715L27.61 79.3008L27.52 79.256L27.42 79.2112C28.49 71.6353 31.14 66.9957 32.68 66.906C34.22 66.9957 36.86 71.6353 37.94 79.2L37.93 79.2112Z" fill="#2B3E4C"/>
<path d="M35.75 70.3465C34.73 68.1052 33.59 66.7379 32.69 66.6819H32.67C31.77 66.7267 30.62 68.1052 29.61 70.3465C28.55 72.6888 27.71 75.7819 27.24 79.1215L27.34 79.1664L27.43 79.2112L27.53 79.256L27.62 79.3009C28.09 75.9724 28.92 72.8793 29.97 70.5483C31.08 68.094 32.1 67.175 32.69 67.1302C33.28 67.175 34.3 68.094 35.41 70.5483C36.46 72.8793 37.29 75.9612 37.76 79.2896L37.85 79.2448L37.95 79.2L38.04 79.1552L38.14 79.1103C37.66 75.7707 36.83 72.6888 35.77 70.3465H35.75Z" fill="#F4DFB9"/>
<path fill-rule="evenodd" clip-rule="evenodd" d="M32.68 68.6095C32.45 69.0466 32.46 74.9974 32.47 76.2638C32.47 76.3983 32.57 76.4992 32.68 76.4992C32.8 76.4992 32.89 76.3983 32.89 76.2638C32.89 74.9862 32.9 69.0466 32.68 68.6095Z" fill="#F4DFB9"/>
<path fill-rule="evenodd" clip-rule="evenodd" d="M32.8701 81.856C32.8001 81.856 32.7401 81.856 32.6701 81.856C32.6001 81.856 32.5401 81.856 32.4801 81.856C32.4601 80.2198 32.4601 78.5388 32.4601 77.9336C32.4601 77.7991 32.5601 77.6982 32.6701 77.6982C32.7301 77.6982 32.7801 77.7207 32.8201 77.7655C32.8601 77.8103 32.8801 77.8663 32.8801 77.9336C32.8801 78.5388 32.8801 80.231 32.8601 81.856H32.8701Z" fill="#F4DFB9"/>
<path fill-rule="evenodd" clip-rule="evenodd" d="M29.3 80.287C30.05 73.9439 30.91 71.0862 31.16 71.0862C31.3 71.0862 30.7501 71.9155 29.7501 80.4551L29.3101 80.287H29.3Z" fill="#F4DFB9"/>
</g>
<mask id="mask1_60_4" style="mask-type:luminance" maskUnits="userSpaceOnUse" x="32" y="21" width="34" height="64">
<path d="M32.6601 84.0862H65.3301V21.5405L32.6601 21.5405L32.6601 84.0862Z" fill="white"/>
</mask>
<g mask="url(#mask1_60_4)">
<path d="M0.969985 28.231C1.34998 27.581 1.95998 27.1552 2.66998 27.0431L30.63 22.325C31.76 22.1345 33.6 22.1233 34.73 22.3026L62.66 26.7181C63.37 26.8302 63.98 27.2448 64.36 27.8948C64.75 28.5448 64.86 29.3293 64.69 30.1026L57.53 62.0871L55.93 69.2258C55.61 70.6379 54.43 72.1733 53.24 72.7448L39.81 79.0655L38.2 79.8276L38.01 79.9172L37.82 80.0069L36.74 80.5112L34.74 81.4526C34.21 81.6991 33.54 81.8336 32.86 81.856C32.8 81.856 32.73 81.856 32.67 81.856C32.61 81.856 32.54 81.856 32.47 81.856C31.79 81.8336 31.12 81.6991 30.58 81.4414L28.11 80.2758L27.51 79.9957L27.32 79.906L27.13 79.8164L26.92 79.7155L12.16 72.7448C10.97 72.1845 9.77998 70.6379 9.45998 69.237L8.03998 62.9724L0.649985 30.4388C0.469985 29.6543 0.589985 28.8698 0.969985 28.2198V28.231ZM48.53 72.375L48.72 72.2853L51.91 70.7052C51.91 70.7052 52.87 70.1896 53.21 69.8871C54.13 69.0577 54.28 68.475 54.43 67.8138C54.5 67.5 54.2 67.5896 54.2 67.5896C54.2 67.5896 50.21 69.5284 50.08 69.6405C49.85 69.7862 49.62 69.9431 49.49 70.0664C48.58 70.9181 48.44 71.5008 48.3 72.162C48.23 72.4758 48.53 72.375 48.53 72.375ZM41.17 76.2974L41.36 76.2077L44.55 74.6276C44.55 74.6276 45.51 74.1121 45.85 73.8095C46.77 72.9802 46.92 72.3974 47.07 71.7362C47.14 71.4224 46.84 71.5121 46.84 71.5121C46.84 71.5121 42.85 73.4508 42.72 73.5629C42.49 73.7086 42.27 73.8655 42.13 73.9888C41.22 74.8405 41.08 75.4233 40.94 76.0845C40.87 76.3983 41.17 76.2974 41.17 76.2974ZM27.25 52.0121L28.11 53.8724C28.63 55.1948 29.68 54.6793 29.91 54.5448L31.57 53.5138L32.68 52.7741L33.54 53.2784L35.67 54.5448C35.89 54.6793 36.95 55.1948 37.47 53.8724L38.33 52.0121C38.45 51.7543 38.74 51.6086 38.99 51.6758L42.51 52.6284C42.76 52.6957 43.01 52.6508 43.07 52.5276C43.13 52.4043 43.02 52.1689 42.81 51.9896L32.66 43.3379L22.76 51.9896C22.56 52.1577 22.44 52.4043 22.5 52.5276C22.56 52.6508 22.81 52.6957 23.06 52.6284L26.58 51.6758C26.83 51.6086 27.12 51.7655 27.24 52.0121H27.25ZM18.48 71.725C18.63 72.3862 18.78 72.9689 19.7 73.7983C20.04 74.1008 21 74.6164 21 74.6164L24.19 76.1965L24.38 76.2862C24.38 76.2862 24.68 76.3871 24.61 76.0733C24.47 75.4008 24.33 74.8293 23.42 73.9776C23.29 73.8543 23.06 73.6974 22.83 73.5517C22.7 73.4396 18.71 71.5008 18.71 71.5008C18.71 71.5008 18.41 71.4 18.48 71.725ZM11.12 67.8026C11.27 68.475 11.42 69.0465 12.34 69.8758C12.68 70.1784 13.64 70.6939 13.64 70.6939L16.83 72.2741L17.02 72.3638C17.02 72.3638 17.32 72.4646 17.25 72.1508C17.11 71.4784 16.97 70.9069 16.06 70.0552C15.93 69.9319 15.7 69.775 15.47 69.6293C15.34 69.5172 11.35 67.5784 11.35 67.5784C11.35 67.5784 11.05 67.4776 11.12 67.8026ZM1.95998 30.0689L9.20998 61.975L32.67 41.3655L56.12 61.975L63.37 29.7439C63.45 29.3853 63.4 29.0267 63.23 28.7465C63.06 28.4664 62.79 28.2758 62.46 28.2198L34.53 23.8043C33.52 23.6474 31.83 23.6474 30.82 23.8267L2.85998 28.5448C2.52998 28.6008 2.25998 28.7914 2.08998 29.0715C1.91998 29.3629 1.86998 29.7103 1.94998 30.0689H1.95998Z" fill="#F4DFB9"/>
<path d="M50 49.0422L48.97 49.4457L50.01 49.7931L50.37 50.9586L50.69 49.7931L51.72 49.3896L50.68 49.031L50.32 47.8655L50 49.0422Z" fill="#F4DFB9"/>
<path d="M49.9799 44.369L48.9399 44.7725L49.9899 45.1311L50.3499 46.2966L50.6599 45.1199L51.6999 44.7164L50.6499 44.369L50.2899 43.2035L49.9799 44.369Z" fill="#F4DFB9"/>
<path d="M48.95 40.0431L47.91 40.4465L48.96 40.8051L49.32 41.9707L49.64 40.7939L50.67 40.3905L49.63 40.0319L49.27 38.8776L48.95 40.0431Z" fill="#F4DFB9"/>
<path d="M47.52 35.8854L46.48 36.2888L47.53 36.6474L47.89 37.8017L48.21 36.6362L49.24 36.2328L48.2 35.8742L47.84 34.7198L47.52 35.8854Z" fill="#F4DFB9"/>
<path d="M44.8399 32.4897L43.7999 32.8932L44.8399 33.2518L45.2099 34.4061L45.5199 33.2406L46.5599 32.8371L45.5099 32.4785L45.1599 31.313L44.8399 32.4897Z" fill="#F4DFB9"/>
<path d="M41.7299 29.8673L40.6899 30.282L41.7399 30.6294L42.0999 31.7949L42.4099 30.6182L43.4499 30.2147L42.4099 29.8673L42.0499 28.7018L41.7299 29.8673Z" fill="#F4DFB9"/>
<path d="M38.37 28.0405L37.33 28.444L38.38 28.8026L38.74 29.9681L39.0499 28.8026L40.09 28.3879L39.0499 28.0405L38.69 26.875L38.37 28.0405Z" fill="#F4DFB9"/>
<path d="M34.3599 26.8974L33.3199 27.3009L34.3599 27.6595L34.7199 28.8138L35.0399 27.6483L36.0799 27.2448L35.0299 26.8862L34.6699 25.7207L34.3599 26.8974Z" fill="#F4DFB9"/>
<path fill-rule="evenodd" clip-rule="evenodd" d="M43.28 78.9759L43.47 78.8862L46.69 77.3845C46.69 77.3845 47.69 76.9586 48.12 76.8914C49.3 76.7121 49.77 76.9923 50.3 77.3285C50.56 77.4854 50.29 77.6647 50.29 77.6647C50.29 77.6647 46.29 79.5698 46.13 79.6035C45.88 79.6931 45.62 79.7604 45.45 79.7828C44.27 79.9397 43.81 79.6483 43.27 79.3009C43.02 79.1328 43.29 78.9647 43.29 78.9647L43.28 78.9759Z" fill="#F4DFB9"/>
<path fill-rule="evenodd" clip-rule="evenodd" d="M50.76 75.356L50.9499 75.2663L54.17 73.7646C54.17 73.7646 55.17 73.3388 55.6 73.2715C56.78 73.0922 57.25 73.3724 57.78 73.7086C58.04 73.8655 57.7699 74.0448 57.7699 74.0448C57.7699 74.0448 53.77 75.95 53.61 75.9836C53.36 76.0732 53.1 76.1405 52.93 76.1629C51.75 76.3198 51.29 76.0284 50.75 75.681C50.5 75.5129 50.7699 75.3448 50.7699 75.3448L50.76 75.356Z" fill="#F4DFB9"/>
<path fill-rule="evenodd" clip-rule="evenodd" d="M35.66 82.5957C36.19 82.9431 36.65 83.2233 37.82 83.0776C37.82 83.0776 37.83 83.0776 37.84 83.0776C37.89 83.0776 37.96 83.0552 38.03 83.0439C38.1 83.0215 38.17 83.0103 38.24 82.9879C38.33 82.9655 38.43 82.9319 38.52 82.8983C38.68 82.8646 42.68 80.9595 42.68 80.9595C42.68 80.9595 42.95 80.7802 42.69 80.6233C42.15 80.2871 41.68 80.0069 40.51 80.1862C40.08 80.2534 39.08 80.6793 39.08 80.6793L38.31 81.0379L38.12 81.1276L37.93 81.2172L35.87 82.181L35.68 82.2707C35.68 82.2707 35.41 82.4388 35.66 82.6069V82.5957Z" fill="#F4DFB9"/>
<path fill-rule="evenodd" clip-rule="evenodd" d="M56.34 71.4224L56.21 71.3552L56.24 71.1983C56.53 69.7974 57.9 69.0353 57.95 69.0017L62.15 66.6931C62.85 66.2784 63.36 66.6147 63.58 67.0405C63.82 67.5 63.81 68.206 63.37 68.5198L58.85 71.2319C58.71 71.2767 57.77 71.5345 57.02 71.5345C56.75 71.5345 56.51 71.5009 56.33 71.4112L56.34 71.4224Z" fill="#F4DFB9"/>
<path fill-rule="evenodd" clip-rule="evenodd" d="M29.39 78.6844L30.52 79.1999C31.89 79.8275 33.43 79.8275 34.81 79.1999L35.94 78.6844L36.33 78.5051C36.46 76.443 36.5 74.2465 37.18 73.2715C37.18 73.2603 37.2 73.249 37.21 73.2378C37.39 72.9801 37.63 72.7447 37.9 72.5318C38.67 71.9042 39.75 71.3887 40.93 70.8844C40.93 70.8844 41.2 70.7387 41.28 70.6939C42.65 69.8646 43.84 68.7999 44.56 67.1861C44.84 66.5585 45.09 65.9085 45.34 65.2697C45.55 64.7094 45.77 64.1603 46.01 63.6223C46.29 62.9835 46.41 62.3447 46.44 61.6947C46.46 61.1456 46.42 60.5965 46.34 60.0361C46.22 59.1844 46.12 58.3215 46.05 57.4697C46.01 56.9206 46.05 56.3715 46.03 55.8111C46.01 55.4077 45.79 55.2508 45.47 55.4413C45.25 55.587 45.05 55.8111 44.9 56.0465C44.58 56.5844 44.55 57.2232 44.53 57.8508C44.52 58.1758 44.51 58.5008 44.49 58.837V60.6637C45.59 61.1792 44.05 63.7456 43.75 64.1827C43.5 64.6085 42.54 65.9085 42.3 66.1215C42.07 66.4016 41.91 66.5921 41.84 66.6706C41.79 66.7266 41.73 66.749 41.67 66.7378C41.62 66.7378 41.58 66.7154 41.54 66.6706C41.45 66.5809 41.45 66.424 41.54 66.3344C43.02 64.6309 43.8 63.3758 44.19 62.5465C44.3 62.3111 44.39 62.087 44.44 61.8853C44.6 61.1568 44.04 60.8318 43.43 61.2801C43.41 61.3025 43.38 61.3137 43.36 61.3361C43.22 61.4482 43.05 61.5715 42.88 61.7508C42.14 62.5465 41.3 63.2077 40.55 63.9921C40.01 64.5637 39.53 65.0568 38.82 65.4154C38.82 65.4154 37.77 65.8077 37.26 65.9646C36.33 66.2447 35.43 66.6034 34.59 67.1077C34.43 67.2534 34.06 67.6008 34.04 67.5896C33.76 67.8585 33.48 68.1611 33.21 68.5422C33.18 68.587 33.15 68.6318 33.12 68.6766C32.97 68.9008 32.81 69.1361 32.66 69.3939C32.43 69.7973 32.21 70.2456 31.99 70.7611C31.98 70.7947 31.96 70.8284 31.95 70.8732C31.39 72.2516 30.24 75.8266 29.39 78.718V78.6844Z" fill="#2B3E4C"/>
<path fill-rule="evenodd" clip-rule="evenodd" d="M40.53 59.3188C40.53 59.005 40.35 58.8593 40.11 59.0274C39.89 59.1843 39.65 59.3973 39.57 59.6438C39.39 60.1817 39.23 60.7421 39.19 61.3024C39.13 62.1317 39.11 63.1292 38.95 64.0369C38.9 64.3283 38.84 64.6197 38.76 64.8886C38.79 65.0119 39.94 63.9809 40.38 63.499C40.42 63.4542 40.5 60.5628 40.54 59.3188H40.53Z" fill="#2B3E4C"/>
<path fill-rule="evenodd" clip-rule="evenodd" d="M40.93 59.7559C40.85 60.8206 40.77 62.0197 40.72 63.1628C41.22 62.6585 41.78 62.1542 42.21 61.6947C42.29 61.6163 42.27 61.4033 42.28 61.2913C42.33 59.9576 42.36 58.6128 42.4 57.2792C42.41 56.8309 42.22 56.6852 41.86 56.887C41.52 57.0775 41.28 57.4137 41.2 57.8171C41.08 58.4559 40.98 59.1059 40.93 59.7671V59.7559Z" fill="#2B3E4C"/>
<path fill-rule="evenodd" clip-rule="evenodd" d="M44.27 56.3267C44.29 55.8 44.03 55.5982 43.63 55.8784C43.42 56.0241 43.24 56.2819 43.1 56.5284C42.79 57.0775 42.82 57.7275 42.79 58.3439C42.73 59.2965 42.65 60.3387 42.6 61.3474C43.07 60.9663 43.35 60.731 44.13 60.5853C44.13 60.5517 44.24 57.0439 44.27 56.3267Z" fill="#2B3E4C"/>
<path fill-rule="evenodd" clip-rule="evenodd" d="M18.88 61.6724C18.91 62.3224 19.03 62.9724 19.31 63.6C19.55 64.1379 19.77 64.6982 19.98 65.2474C20.23 65.8974 20.48 66.5362 20.76 67.1638C21.48 68.7775 22.67 69.831 24.04 70.6715C24.11 70.7163 24.39 70.862 24.39 70.862C25.57 71.3775 26.65 71.8931 27.42 72.5094C27.69 72.7336 27.93 72.9689 28.11 73.2155C28.11 73.2267 28.13 73.2379 28.14 73.2491C28.82 74.2241 28.86 76.4206 28.99 78.4827L29.38 78.662L30.51 79.1775C31.88 79.8051 33.42 79.8051 34.8 79.1775L35.93 78.662C35.07 75.7819 33.93 72.2069 33.37 70.8284C33.36 70.7948 33.34 70.75 33.33 70.7163C33.12 70.2008 32.89 69.7526 32.66 69.3491C32.51 69.0913 32.36 68.8448 32.2 68.6319C32.17 68.587 32.14 68.5422 32.11 68.4974C31.84 68.1275 31.56 67.8138 31.28 67.5448C31.26 67.5448 30.89 67.2086 30.73 67.0629C29.89 66.5698 29 66.2 28.06 65.9198C27.55 65.7629 26.5 65.3819 26.5 65.3707C25.8 65.012 25.31 64.5189 24.77 63.9474C24.02 63.1629 23.18 62.5017 22.44 61.706C22.27 61.5267 22.11 61.4034 21.96 61.2913C21.94 61.2689 21.91 61.2577 21.89 61.2353C21.27 60.787 20.72 61.112 20.88 61.8405C20.93 62.0534 21.02 62.2663 21.13 62.5017C21.52 63.331 22.3 64.5862 23.78 66.2896C23.86 66.3793 23.86 66.5362 23.78 66.6258C23.74 66.6707 23.7 66.6931 23.65 66.6931C23.59 66.6931 23.52 66.6707 23.48 66.6258C23.41 66.5474 23.24 66.3456 23.02 66.0767C22.78 65.8638 21.83 64.5525 21.57 64.1379C21.27 63.6896 19.73 61.1232 20.84 60.6189V58.7922C20.83 58.4672 20.81 58.1422 20.8 57.806C20.78 57.1784 20.76 56.5396 20.43 56.0017C20.29 55.7663 20.08 55.531 19.86 55.3965C19.54 55.1948 19.32 55.3629 19.3 55.7663C19.28 56.3155 19.32 56.8758 19.27 57.425C19.2 58.2879 19.1 59.1396 18.98 59.9913C18.9 60.5517 18.86 61.1008 18.88 61.65V61.6724Z" fill="#2B3E4C"/>
<path d="M31.75 37.5775L31.23 39.2474C31.15 39.4379 30.95 39.5387 30.77 39.4491C30.6 39.3594 30.51 39.1353 30.59 38.9336L31.1 37.8353L28.59 39.7405C28.43 39.8525 28.21 39.7853 28.12 39.5948C28.02 39.4042 28.08 39.1689 28.25 39.068L29.5 38.3844L26.61 39.5275C26.31 39.6172 26 39.4267 25.92 39.0905C25.84 38.7542 26.01 38.4068 26.31 38.3172L28.46 37.8241L27.1 37.9361C26.79 37.9361 26.54 37.656 26.54 37.3086C26.54 36.9611 26.79 36.681 27.1 36.681L30.38 36.9387L28.08 36.0198C27.82 35.7284 27.82 35.2577 28.08 34.9775L32.22 32.0974C32.34 31.9629 32.51 31.8956 32.67 31.8956C32.67 31.8956 32.68 31.8956 32.69 31.8956C32.69 31.8956 32.7 31.8956 32.71 31.8956C32.87 31.8956 33.04 31.9629 33.16 32.1086L37.3 34.9887C37.55 35.2689 37.55 35.7396 37.3 36.031L35 36.9499L38.26 36.6922C38.57 36.6922 38.82 36.9724 38.82 37.3198C38.82 37.6672 38.57 37.9474 38.26 37.9474L36.9 37.8353L39.05 38.3284C39.35 38.418 39.52 38.7655 39.44 39.1017C39.36 39.4379 39.05 39.6284 38.75 39.5387L35.86 38.3956L37.11 39.0793C37.27 39.1913 37.33 39.4267 37.24 39.606C37.14 39.7853 36.93 39.8525 36.77 39.7517L34.26 37.8465L34.77 38.9448C34.85 39.1465 34.77 39.3706 34.59 39.4603C34.42 39.5499 34.21 39.4603 34.13 39.2586L33.61 37.5887H33.55V66.7827C33 66.7491 32.46 66.8051 31.91 66.7827V37.5775H31.77H31.75Z" fill="#F4DFB9"/>
<path d="M33.98 67.6905H33.51V44.1224L33.98 51.194V67.6905Z" fill="#2B3E4C"/>
<path d="M27.3999 79.2112L27.4999 79.256L27.5899 79.3008L28.0999 79.5474L30.5699 80.7129C31.1499 80.9931 31.8999 81.1276 32.6499 81.1276C33.3999 81.1276 34.1399 80.9931 34.7299 80.7129L36.7299 79.7715L37.7199 79.3008L37.8099 79.256L37.9099 79.2112C36.8399 71.6353 34.1899 66.9957 32.6499 66.906C31.1099 66.9957 28.4699 71.6353 27.3899 79.2L27.3999 79.2112Z" fill="#2B3E4C"/>
<path d="M29.59 70.3465C30.61 68.1052 31.75 66.7379 32.65 66.6819H32.67C33.57 66.7267 34.7199 68.1052 35.7299 70.3465C36.7899 72.6888 37.63 75.7819 38.1 79.1215L38 79.1664L37.91 79.2112L37.81 79.256L37.72 79.3009C37.25 75.9724 36.42 72.8793 35.37 70.5483C34.26 68.094 33.24 67.175 32.65 67.1302C32.06 67.175 31.04 68.094 29.93 70.5483C28.88 72.8793 28.05 75.9612 27.58 79.2896L27.49 79.2448L27.39 79.2L27.2999 79.1552L27.2 79.1103C27.68 75.7707 28.51 72.6888 29.57 70.3465H29.59Z" fill="#F4DFB9"/>
<path fill-rule="evenodd" clip-rule="evenodd" d="M32.66 68.6095C32.89 69.0466 32.88 74.9974 32.87 76.2638C32.87 76.3983 32.77 76.4992 32.66 76.4992C32.54 76.4992 32.45 76.3983 32.45 76.2638C32.45 74.9862 32.44 69.0466 32.66 68.6095Z" fill="#F4DFB9"/>
<path fill-rule="evenodd" clip-rule="evenodd" d="M32.46 81.856C32.53 81.856 32.59 81.856 32.66 81.856C32.73 81.856 32.79 81.856 32.85 81.856C32.87 80.2198 32.87 78.5388 32.87 77.9336C32.87 77.7991 32.77 77.6982 32.66 77.6982C32.6 77.6982 32.55 77.7207 32.51 77.7655C32.47 77.8103 32.45 77.8663 32.45 77.9336C32.45 78.5388 32.45 80.231 32.47 81.856H32.46Z" fill="#F4DFB9"/>
<path fill-rule="evenodd" clip-rule="evenodd" d="M36.04 80.287C35.29 73.9439 34.43 71.0862 34.18 71.0862C34.04 71.0862 34.59 71.9155 35.59 80.4551L36.03 80.287H36.04Z" fill="#F4DFB9"/>
</g>
<path d="M76.28 29.3629C76.28 25.362 78.3 22.8405 81.43 22.8405C83.93 22.8405 85.46 24.2413 86.04 26.4939L84.64 26.8189C84.17 25.306 83.09 24.331 81.49 24.3198C78.99 24.2974 77.75 26.3594 77.74 29.3629C77.72 32.3663 78.99 34.3948 81.49 34.4172C83.65 34.4396 84.77 32.9603 84.94 30.4611H82.56V29.1836H86.4C86.42 29.4301 86.43 29.8224 86.43 29.9232C86.43 33.3637 84.69 35.8965 81.42 35.8965C78.34 35.8965 76.27 33.4086 76.27 29.3629H76.28Z" fill="#F4DFB9"/>
<path d="M87.21 30.9206C87.21 27.9732 88.79 25.9672 91.25 25.9672C93.71 25.9672 95.3 28.018 95.3 30.9206C95.3 33.8232 93.75 35.8965 91.25 35.8965C88.75 35.8965 87.21 33.8456 87.21 30.9206ZM93.83 30.9206C93.83 28.8025 92.97 27.4353 91.25 27.4353C89.53 27.4353 88.68 28.8585 88.68 30.9206C88.68 32.9827 89.56 34.4172 91.25 34.4172C92.94 34.4172 93.83 32.9939 93.83 30.9206Z" fill="#F4DFB9"/>
<path d="M96.69 35.6276V23.087H98.08V27.0767C98.68 26.3707 99.5101 25.9672 100.56 25.9672C102.89 25.9672 104.31 28.0965 104.31 30.9207C104.31 33.7448 102.9 35.8965 100.55 35.8965C99.42 35.8965 98.5401 35.4034 97.9201 34.5741V35.6388H96.6801L96.69 35.6276ZM102.84 30.9207C102.84 28.937 102.05 27.3905 100.34 27.3905C98.6301 27.3905 97.9201 28.8474 97.9201 30.9207C97.9201 32.9939 98.6801 34.4732 100.37 34.4732C102.06 34.4732 102.83 32.9267 102.83 30.9207H102.84Z" fill="#F4DFB9"/>
<path d="M105.86 24.5663V22.9637H107.24V24.5663H105.86ZM105.86 35.6275V26.225H107.24V35.6275H105.86Z" fill="#F4DFB9"/>
<path d="M108.8 30.9879C108.8 27.906 110.4 25.9672 112.84 25.9672C115.28 25.9672 116.84 28.018 116.72 31.3689H110.29C110.4 33.3189 111.3 34.4284 112.85 34.4284C113.95 34.4284 114.79 33.8456 115.26 32.7697L116.59 33.2853C115.93 34.9439 114.54 35.8965 112.92 35.8965C110.44 35.8965 108.82 33.9353 108.82 30.9991L108.8 30.9879ZM110.31 30.1249H115.28C115.11 28.2758 114.31 27.368 112.89 27.368C111.39 27.368 110.51 28.343 110.31 30.1249Z" fill="#F4DFB9"/>
<path d="M118.13 35.6275V26.2249H119.37V27.7154C119.56 27.3456 119.81 27.0318 120.08 26.7964C120.72 26.2137 121.71 26.0344 122.46 26.2249V27.6818C121.88 27.5137 121.12 27.5585 120.54 28.0404C119.72 28.6904 119.52 29.7999 119.52 30.9094V35.6275H118.13Z" fill="#F4DFB9"/>
<path d="M123.61 35.6275V26.2249H124.85V27.4353C125.47 26.5051 126.43 25.9784 127.65 25.9784C130.35 25.9784 130.99 28.6456 130.99 30.4275V35.6275H129.59V30.9206C129.59 29.1499 129.09 27.4577 127.31 27.4577C125.92 27.4577 125 28.4999 125 30.6741V35.6275H123.6H123.61Z" fill="#F4DFB9"/>
<path d="M132.16 30.9206C132.16 27.9732 133.74 25.9672 136.2 25.9672C138.66 25.9672 140.25 28.018 140.25 30.9206C140.25 33.8232 138.7 35.8965 136.2 35.8965C133.7 35.8965 132.16 33.8456 132.16 30.9206ZM138.78 30.9206C138.78 28.8025 137.92 27.4353 136.2 27.4353C134.48 27.4353 133.63 28.8585 133.63 30.9206C133.63 32.9827 134.51 34.4172 136.2 34.4172C137.89 34.4172 138.78 32.9939 138.78 30.9206Z" fill="#F4DFB9"/>
<path d="M76.43 48.8965C76.43 46.0723 77.85 43.943 80.18 43.943C81.23 43.943 82.06 44.3577 82.66 45.0525V41.0629H84.05V53.6034H82.81V52.5387C82.2 53.368 81.32 53.8611 80.18 53.8611C77.83 53.8611 76.42 51.7094 76.42 48.8853L76.43 48.8965ZM82.82 48.8965C82.82 46.812 82.04 45.3663 80.4 45.3663C78.76 45.3663 77.9 46.9129 77.9 48.8965C77.9 50.8801 78.71 52.4491 80.36 52.4491C82.01 52.4491 82.81 50.9586 82.81 48.8965H82.82Z" fill="#F4DFB9"/>
<path d="M85.4501 48.9637C85.4501 45.8818 87.0501 43.943 89.4901 43.943C91.9301 43.943 93.4901 45.9939 93.3701 49.3447H86.9401C87.0501 51.2947 87.9501 52.4042 89.5001 52.4042C90.6001 52.4042 91.4401 51.8214 91.9101 50.7456L93.2401 51.2611C92.5801 52.9197 91.1901 53.8723 89.5701 53.8723C87.0901 53.8723 85.4701 51.9111 85.4701 48.9749L85.4501 48.9637ZM86.9601 48.0895H91.9301C91.7601 46.2404 90.9601 45.3326 89.5401 45.3326C88.0401 45.3326 87.1601 46.3076 86.9601 48.0895Z" fill="#F4DFB9"/>
<path d="M97.73 53.6034V41.0629H99.11V53.6034H97.73Z" fill="#F4DFB9"/>
<path d="M100.67 51.0594C100.67 49.5801 101.45 48.7171 102.73 48.3025C103.78 47.9887 105.25 47.787 106.5 47.5964C106.46 46.0947 105.89 45.3887 104.43 45.3887C103.41 45.3887 102.6 45.8818 102.29 47.0361L100.98 46.5878C101.38 44.9404 102.55 43.943 104.44 43.943C105.95 43.943 107.1 44.5482 107.58 45.7809C107.81 46.3637 107.85 47.0473 107.85 47.787V53.6033H106.62V52.1352C105.95 53.2895 104.91 53.8611 103.51 53.8611C101.63 53.8611 100.66 52.5723 100.66 51.0594H100.67ZM106.34 50.3982C106.46 49.9499 106.47 49.3447 106.48 48.9189C105.3 49.0982 104.17 49.2439 103.35 49.5016C102.66 49.7482 102.04 50.174 102.04 51.0482C102.04 51.8214 102.53 52.5611 103.73 52.5611C105.22 52.5611 106.14 51.5637 106.34 50.3982Z" fill="#F4DFB9"/>
<path d="M112.36 53.6034V41.0629H116.78C117 41.0629 117.32 41.0853 117.6 41.1301C119.41 41.4439 120.37 43.0241 120.37 45.0077C120.37 46.9913 119.41 48.5715 117.6 48.8853C117.31 48.9413 116.99 48.9525 116.78 48.9525H113.74V53.581H112.36V53.6034ZM113.74 47.4956H116.73C116.92 47.4956 117.2 47.4732 117.43 47.4172C118.5 47.1482 118.95 46.0611 118.95 45.0189C118.95 43.9767 118.5 42.8896 117.43 42.6206C117.2 42.5646 116.93 42.5422 116.73 42.5422H113.74V47.5068V47.4956Z" fill="#F4DFB9"/>
<path d="M121.61 53.6034V44.2009H122.85V45.6914C123.04 45.3215 123.29 45.0077 123.56 44.7724C124.2 44.1896 125.19 44.0103 125.94 44.2009V45.6577C125.36 45.4896 124.6 45.5345 124.02 46.0164C123.2 46.6664 123 47.7759 123 48.8853V53.6034H121.61Z" fill="#F4DFB9"/>
<path d="M126.48 48.8964C126.48 45.949 128.06 43.943 130.52 43.943C132.98 43.943 134.57 45.9939 134.57 48.8964C134.57 51.799 133.02 53.8723 130.52 53.8723C128.02 53.8723 126.48 51.8214 126.48 48.8964ZM133.1 48.8964C133.1 46.7783 132.24 45.4111 130.52 45.4111C128.8 45.4111 127.95 46.8344 127.95 48.8964C127.95 50.9585 128.83 52.393 130.52 52.393C132.21 52.393 133.1 50.9697 133.1 48.8964Z" fill="#F4DFB9"/>
<path d="M137.92 53.6034L134.87 44.2008H136.27L138.62 51.631L140.97 44.2008H142.38L139.33 53.6034H137.92Z" fill="#F4DFB9"/>
<path d="M143.62 42.5422V40.9396H145V42.5422H143.62ZM143.62 53.6034V44.2008H145V53.6034H143.62Z" fill="#F4DFB9"/>
<path d="M147.02 53.6034V44.2008H148.26V45.4111C148.88 44.4809 149.84 43.9542 151.06 43.9542C153.76 43.9542 154.4 46.6215 154.4 48.4034V53.6034H153V48.8965C153 47.1258 152.5 45.4335 150.72 45.4335C149.33 45.4335 148.41 46.4758 148.41 48.6499V53.6034H147.01H147.02Z" fill="#F4DFB9"/>
<path d="M155.56 48.9076C155.58 45.9714 157.05 43.943 159.58 43.943C161.34 43.943 162.71 44.9852 163.15 46.6775L161.78 47.137C161.42 46.0499 160.58 45.4111 159.56 45.4111C157.84 45.4111 157.04 46.868 157.03 48.8964C157.05 50.9921 157.89 52.393 159.56 52.393C160.65 52.393 161.37 51.8214 161.75 50.7456L163.15 51.1602C162.56 52.9197 161.29 53.8723 159.56 53.8723C157 53.8723 155.58 51.7878 155.56 48.9076Z" fill="#F4DFB9"/>
<path d="M164.36 42.5422V40.9396H165.74V42.5422H164.36ZM164.36 53.6034V44.2008H165.74V53.6034H164.36Z" fill="#F4DFB9"/>
<path d="M167.29 51.0594C167.29 49.5801 168.07 48.7171 169.35 48.3025C170.4 47.9887 171.87 47.787 173.12 47.5964C173.08 46.0947 172.51 45.3887 171.05 45.3887C170.03 45.3887 169.22 45.8818 168.91 47.0361L167.6 46.5878C168 44.9404 169.17 43.943 171.06 43.943C172.57 43.943 173.72 44.5482 174.2 45.7809C174.43 46.3637 174.47 47.0473 174.47 47.787V53.6033H173.24V52.1352C172.57 53.2895 171.53 53.8611 170.13 53.8611C168.25 53.8611 167.28 52.5723 167.28 51.0594H167.29ZM172.96 50.3982C173.08 49.9499 173.09 49.3447 173.1 48.9189C171.92 49.0982 170.79 49.2439 169.97 49.5016C169.28 49.7482 168.66 50.174 168.66 51.0482C168.66 51.8214 169.15 52.5611 170.35 52.5611C171.84 52.5611 172.76 51.5637 172.96 50.3982Z" fill="#F4DFB9"/>
<path d="M76.43 66.8611C76.43 64.037 77.85 61.9076 80.18 61.9076C81.23 61.9076 82.06 62.3223 82.66 63.0171V59.0275H84.05V71.568H82.81V70.5033C82.2 71.3326 81.32 71.8257 80.18 71.8257C77.83 71.8257 76.42 69.674 76.42 66.8499L76.43 66.8611ZM82.82 66.8611C82.82 64.7766 82.04 63.3309 80.4 63.3309C78.76 63.3309 77.9 64.8775 77.9 66.8611C77.9 68.8447 78.71 70.4137 80.36 70.4137C82.01 70.4137 82.81 68.9232 82.81 66.8611H82.82Z" fill="#F4DFB9"/>
<path d="M85.4501 66.9396C85.4501 63.8577 87.0501 61.9189 89.4901 61.9189C91.9301 61.9189 93.4901 63.9698 93.3701 67.3207H86.9401C87.0501 69.2707 87.9501 70.3802 89.5001 70.3802C90.6001 70.3802 91.4401 69.7974 91.9101 68.7215L93.2401 69.237C92.5801 70.8957 91.1901 71.8483 89.5701 71.8483C87.0901 71.8483 85.4701 69.887 85.4701 66.9508L85.4501 66.9396ZM86.9601 66.0655H91.9301C91.7601 64.2164 90.9601 63.3086 89.5401 63.3086C88.0401 63.3086 87.1601 64.2836 86.9601 66.0655Z" fill="#F4DFB9"/>
<path d="M94.9301 71.5792V59.0387H96.3101V71.5792H94.9301Z" fill="#F4DFB9"/>
<path d="M101.13 71.5792V59.0387H102.53L108.36 68.8335V59.0387H109.76V71.5792H108.36L102.53 61.7732V71.5792H101.13Z" fill="#F4DFB9"/>
<path d="M111.16 66.9396C111.16 63.8577 112.76 61.9189 115.2 61.9189C117.64 61.9189 119.2 63.9698 119.08 67.3207H112.65C112.76 69.2707 113.66 70.3802 115.21 70.3802C116.31 70.3802 117.15 69.7974 117.62 68.7215L118.95 69.237C118.29 70.8957 116.9 71.8483 115.28 71.8483C112.8 71.8483 111.18 69.887 111.18 66.9508L111.16 66.9396ZM112.67 66.0655H117.64C117.47 64.2164 116.67 63.3086 115.25 63.3086C113.75 63.3086 112.87 64.2836 112.67 66.0655Z" fill="#F4DFB9"/>
<path d="M120.34 67.3766V62.1766H121.74V66.8835C121.74 68.6542 122.25 70.3465 124.02 70.3465C125.41 70.3465 126.33 69.3042 126.33 67.1301V62.1766H127.72V71.5792H126.48V70.3689C125.86 71.299 124.9 71.8258 123.68 71.8258C120.98 71.8258 120.34 69.1585 120.34 67.3766Z" fill="#F4DFB9"/>
<path d="M129.11 66.8612C129.11 64.037 130.53 61.9077 132.86 61.9077C134 61.9077 134.88 62.4008 135.49 63.2189V62.1655H136.73V75.7482H135.34V70.6939C134.74 71.4112 133.91 71.8258 132.87 71.8258C130.52 71.8258 129.11 69.6741 129.11 66.85V66.8612ZM135.49 66.8612C135.49 64.7767 134.71 63.331 133.07 63.331C131.43 63.331 130.57 64.8775 130.57 66.8612C130.57 68.8448 131.38 70.4138 133.03 70.4138C134.68 70.4138 135.48 68.9232 135.48 66.8612H135.49Z" fill="#F4DFB9"/>
<path d="M138.43 67.3766V62.1766H139.83V66.8835C139.83 68.6542 140.33 70.3465 142.11 70.3465C143.5 70.3465 144.42 69.3042 144.42 67.1301V62.1766H145.81V71.5792H144.57V70.3689C143.95 71.299 142.99 71.8258 141.77 71.8258C139.07 71.8258 138.43 69.1585 138.43 67.3766Z" fill="#F4DFB9"/>
<path d="M147.2 66.9396C147.2 63.8577 148.8 61.919 151.24 61.919C153.68 61.919 155.24 63.9698 155.12 67.3207H148.69C148.8 69.2707 149.7 70.3802 151.25 70.3802C152.35 70.3802 153.19 69.7974 153.66 68.7215L154.99 69.2371C154.33 70.8957 152.94 71.8483 151.32 71.8483C148.84 71.8483 147.22 69.8871 147.22 66.9508L147.2 66.9396ZM148.71 66.0655H153.68C153.51 64.2164 152.71 63.3086 151.29 63.3086C149.79 63.3086 148.91 64.2836 148.71 66.0655ZM151.87 57.8621H153L151.98 60.731H150.85L151.87 57.8621Z" fill="#F4DFB9"/>
<path d="M156.29 71.5792V62.1766H157.53V63.387C158.15 62.4568 159.11 61.9301 160.33 61.9301C163.03 61.9301 163.67 64.5973 163.67 66.3792V71.5792H162.27V66.8723C162.27 65.1016 161.76 63.4094 159.99 63.4094C158.6 63.4094 157.68 64.4516 157.68 66.6257V71.5792H156.28H156.29Z" fill="#F4DFB9"/>
</svg>
